<svg width="227" height="41" viewBox="0 0 227 41" fill="none" xmlns="http://www.w3.org/2000/svg">
<path fill-rule="evenodd" clip-rule="evenodd" d="M87.4865 26.3438C87.6634 26.7554 87.8404 27.2259 88.0173 27.6964C88.5482 29.049 88.6662 30.3428 88.4892 31.6366C88.0763 34.3419 86.3068 36.6942 83.7114 37.7528C82.7676 38.1645 81.7649 38.3409 80.7032 38.3409C80.4082 38.3409 80.0543 38.3409 79.7594 38.2821C78.5207 38.1645 77.282 37.7528 76.0433 37.0471C74.5687 36.2238 73.0941 34.9888 71.4425 33.2245C69.7909 34.9888 68.3753 36.2238 66.8417 37.0471C65.603 37.7528 64.3643 38.1057 63.1256 38.2821C62.9782 38.2821 62.816 38.2968 62.6539 38.3115L62.6537 38.3115C62.4915 38.3262 62.3293 38.3409 62.1819 38.3409C61.1201 38.3409 60.1174 38.1645 59.1736 37.7528C56.6373 36.6942 54.7497 34.4007 54.3368 31.6366C54.1599 30.284 54.3368 28.9902 54.8087 27.6964C54.9857 27.1671 55.1626 26.7554 55.3396 26.3438C55.6345 25.6969 55.9294 25.05 56.1654 24.4619L56.2244 24.4031C58.8197 18.875 61.533 13.2881 64.3643 7.75996L64.4823 7.52472C64.7772 6.99545 65.0721 6.40738 65.367 5.8193L65.367 5.81925C65.4465 5.69479 65.5259 5.56816 65.6062 5.44019L65.6062 5.44018L65.6062 5.44017C65.9432 4.90297 66.295 4.34217 66.7237 3.81972C67.9624 2.40829 69.614 1.58496 71.4425 1.58496C73.2121 1.58496 74.9226 2.40829 76.1023 3.87853C76.6922 4.52544 77.1051 5.23115 77.459 5.87806L77.459 5.87816C77.754 6.46622 78.0489 7.05428 78.3438 7.58353L78.4617 7.81877C81.352 13.3469 84.0653 18.9338 86.6017 24.4619H86.6607C86.8966 25.05 87.1915 25.6969 87.4865 26.3438ZM116.507 10.8181C116.507 12.1707 115.445 13.2292 114.089 13.2292C112.732 13.2292 111.67 12.1707 111.67 10.8181C111.67 9.46544 112.732 8.40687 114.089 8.40687C115.504 8.46568 116.507 9.52425 116.507 10.8181ZM106.657 15.6404V16.2285C106.657 16.2285 105.536 14.7583 103.059 14.7583C99.0475 14.7583 95.9213 17.8164 95.9213 22.0507C95.9213 26.2262 99.0475 29.3431 103.059 29.3431C105.536 29.3431 106.657 27.814 106.657 27.814V28.4609C106.657 28.755 106.893 28.9902 107.187 28.9902H110.196V15.1112H107.187C106.834 15.1112 106.657 15.3464 106.657 15.6404ZM103.648 25.9909C105.005 25.9909 106.126 25.2852 106.657 24.4619V19.5219C106.126 18.7573 104.946 17.9928 103.648 17.9928C101.289 17.9928 99.4604 19.4631 99.4604 21.9919C99.4604 24.5207 101.289 25.9909 103.648 25.9909ZM112.319 15.1112H115.858V28.9314H112.319V15.1112ZM161.631 16.2285C161.631 16.2285 162.81 14.7583 165.229 14.7583C169.24 14.7583 172.366 17.8164 172.366 21.9919C172.366 26.1673 169.24 29.2842 165.229 29.2842C162.751 29.2842 161.631 27.7552 161.631 27.7552V28.4021C161.631 28.6961 161.395 28.9314 161.1 28.9314H158.092V8.46567H161.631V16.2285ZM164.639 25.9321C163.282 25.9321 162.221 25.2264 161.631 24.4031V19.4631C162.162 18.6985 163.341 17.934 164.639 17.934C166.998 17.934 168.827 19.4042 168.827 21.9331C168.827 24.4619 166.998 25.9321 164.639 25.9321ZM156.263 28.9902V20.7569C156.263 18.4045 155.791 17.1107 154.611 16.1109C153.55 15.2288 152.252 14.7583 150.718 14.7583C149.362 14.7583 148.005 15.17 146.943 16.2285V15.6404C146.943 15.3464 146.707 15.1112 146.413 15.1112H143.581V28.9902H147.12V19.3454C147.828 18.5221 148.949 17.9928 150.011 17.9928C151.957 17.9928 152.724 18.875 152.724 21.1685V28.9902H156.263ZM134.969 14.7583C132.551 14.7583 131.371 16.2285 131.371 16.2285V8.46567H127.832V28.9314H130.84C131.135 28.9314 131.371 28.6961 131.371 28.4021V27.7552C131.371 27.7552 132.492 29.2842 134.969 29.2842C138.98 29.2842 142.107 26.1673 142.107 21.9919C142.166 17.8164 139.039 14.7583 134.969 14.7583ZM131.371 24.4031C131.961 25.2264 133.023 25.9321 134.38 25.9321C136.739 25.9321 138.568 24.4619 138.568 21.9331C138.568 19.4042 136.739 17.934 134.38 17.934C133.082 17.934 131.902 18.6985 131.371 19.4631V24.4031ZM124.824 14.7583C125.886 14.7583 126.476 14.9347 126.476 14.9347V18.2281C126.476 18.2281 123.526 17.2283 121.698 19.3454V28.9902H118.159V15.1112H121.167C121.462 15.1112 121.698 15.3464 121.698 15.6404V16.2285C122.288 15.464 123.703 14.7583 124.824 14.7583ZM71.3835 29.5783C69.378 27.0495 68.0804 24.6971 67.6675 22.7564C67.4905 21.9331 67.4315 21.1685 67.5495 20.5216C67.6085 19.9335 67.8444 19.4042 68.1393 18.9926C68.8472 17.9928 70.0269 17.3459 71.3835 17.3459C72.7402 17.3459 73.9789 17.934 74.6277 18.9926C74.9226 19.4631 75.1586 19.9335 75.2176 20.5216C75.3355 21.1685 75.2765 21.9331 75.0996 22.7564C74.6867 24.6971 73.389 27.0495 71.3835 29.5783ZM82.7676 35.6357C84.5962 34.93 85.8939 33.2833 86.1298 31.3426C86.2478 30.3428 86.1298 29.4607 85.9528 28.5197C85.889 28.3287 85.8078 28.1377 85.7187 27.928C85.6433 27.7503 85.5621 27.5593 85.481 27.3435C85.3335 27.0495 85.2008 26.7407 85.0681 26.432C84.9353 26.1232 84.8026 25.8145 84.6552 25.5204V25.4616C82.1188 19.9923 79.4055 14.4054 76.5742 8.93615L76.4562 8.70091L76.4562 8.70088C76.1613 8.1128 75.8664 7.52471 75.5715 6.99544C75.2765 6.40734 74.9226 5.81925 74.5097 5.34877C73.7429 4.46663 72.6812 3.99615 71.5605 3.99615C70.4398 3.99615 69.378 4.46663 68.6112 5.34877C68.1983 5.87806 67.8444 6.40734 67.5495 6.99544C67.2546 7.58353 66.9596 8.17163 66.6647 8.70091L66.5468 8.93615C63.6565 14.4054 60.9432 19.9923 58.4068 25.4616L58.3478 25.5204C58.0529 26.1085 57.758 26.7554 57.522 27.3435C57.3451 27.7552 57.1681 28.1669 57.0502 28.5197C56.6373 29.5783 56.5783 30.4604 56.6962 31.4014C56.9322 33.2833 58.2299 34.93 60.0584 35.6945C60.8842 35.9885 61.8279 36.165 62.8307 36.0473C63.7745 35.9297 64.7182 35.6357 65.662 35.1064C66.9596 34.3419 68.3163 33.2245 69.8499 31.519C67.4315 28.5197 65.8979 25.7557 65.3671 23.3445C65.0721 22.2271 65.0131 21.1685 65.1901 20.2276C65.367 19.2866 65.662 18.4633 66.1928 17.6988C67.3136 16.1109 69.2601 15.1112 71.3835 15.1112C73.507 15.1112 75.4535 16.0521 76.5742 17.6988C77.1051 18.4633 77.4 19.2866 77.577 20.2276C77.6949 21.1685 77.6359 22.2271 77.4 23.3445C76.8102 25.7557 75.3355 28.4609 72.9171 31.4602C74.4508 33.1657 75.7484 34.2831 77.1051 35.0476C78.1078 35.5769 78.9926 35.8709 79.9364 35.9885C80.9391 36.1062 81.8829 35.9885 82.7676 35.6357Z" fill="#6D7A8D"/>
</svg>
