<svg width="69" height="22" viewBox="0 0 69 22" fill="none" xmlns="http://www.w3.org/2000/svg">
<path fill-rule="evenodd" clip-rule="evenodd" d="M19.7939 14.5201C19.8948 14.7548 19.9956 15.023 20.0965 15.2912C20.3991 16.0623 20.4664 16.7998 20.3655 17.5374C20.1301 19.0795 19.1214 20.4205 17.6419 21.0239C17.1039 21.2586 16.5323 21.3592 15.927 21.3592C15.7589 21.3592 15.5572 21.3592 15.389 21.3257C14.6829 21.2586 13.9768 21.0239 13.2707 20.6216C12.4301 20.1523 11.5894 19.4483 10.648 18.4425C9.70646 19.4483 8.89946 20.1523 8.02522 20.6216C7.3191 21.0239 6.61298 21.2251 5.90686 21.3257C5.8228 21.3257 5.73033 21.334 5.63786 21.3424L5.63779 21.3424C5.54535 21.3508 5.4529 21.3592 5.36886 21.3592C4.76362 21.3592 4.192 21.2586 3.654 21.0239C2.20813 20.4205 1.13214 19.113 0.896769 17.5374C0.795895 16.7663 0.896769 16.0288 1.16577 15.2912C1.26664 14.9895 1.36752 14.7548 1.46839 14.5201C1.63651 14.1514 1.80464 13.7826 1.93914 13.4474L1.97276 13.4138C3.45225 10.2625 4.99899 7.07766 6.61298 3.92634L6.68023 3.79224C6.84835 3.49052 7.01648 3.15528 7.1846 2.82003C7.22988 2.74908 7.27517 2.67689 7.32093 2.60394C7.51303 2.2977 7.71357 1.97801 7.95797 1.68019C8.66409 0.875596 9.60559 0.40625 10.648 0.40625C11.6567 0.40625 12.6318 0.875596 13.3043 1.71371C13.6406 2.08248 13.8759 2.48478 14.0777 2.85355C14.2458 3.1888 14.4139 3.52405 14.5821 3.82577L14.6493 3.95987C16.2969 7.11119 17.8437 10.296 19.2895 13.4474H19.3231C19.4576 13.7826 19.6258 14.1514 19.7939 14.5201ZM36.337 5.66969C36.337 6.44076 35.7318 7.04421 34.9584 7.04421C34.1851 7.04421 33.5798 6.44076 33.5798 5.66969C33.5798 4.89863 34.1851 4.29518 34.9584 4.29518C35.7654 4.32871 36.337 4.93215 36.337 5.66969ZM30.7223 8.41866V8.7539C30.7223 8.7539 30.0834 7.91579 28.6711 7.91579C26.3847 7.91579 24.6026 9.65907 24.6026 12.0728C24.6026 14.4531 26.3847 16.2299 28.6711 16.2299C30.0834 16.2299 30.7223 15.3583 30.7223 15.3583V15.727C30.7223 15.8947 30.8568 16.0288 31.0249 16.0288H32.7397V8.11693H31.0249C30.8231 8.11693 30.7223 8.25103 30.7223 8.41866ZM29.0074 14.3191C29.7807 14.3191 30.4196 13.9168 30.7222 13.4474V10.6313C30.4196 10.1955 29.7471 9.7597 29.0074 9.7597C27.6624 9.7597 26.62 10.5978 26.62 12.0394C26.62 13.4809 27.6624 14.3191 29.0074 14.3191ZM33.9495 8.11689H35.9669V15.9952H33.9495V8.11689ZM62.0603 8.75384C62.0603 8.75384 62.7328 7.91573 64.1115 7.91573C66.3979 7.91573 68.1801 9.65901 68.1801 12.0393C68.1801 14.4195 66.3979 16.1963 64.1115 16.1963C62.6992 16.1963 62.0603 15.3247 62.0603 15.3247V15.6935C62.0603 15.8611 61.9258 15.9952 61.7577 15.9952H60.0429V4.32858H62.0603V8.75384ZM63.7752 14.2855C63.0018 14.2855 62.3966 13.8832 62.0603 13.4139V10.5978C62.3629 10.162 63.0354 9.72616 63.7752 9.72616C65.1202 9.72616 66.1625 10.5643 66.1625 12.0058C66.1625 13.4474 65.1202 14.2855 63.7752 14.2855ZM59.0008 16.0288V11.3353C59.0008 9.99432 58.7318 9.25677 58.0593 8.68685C57.4541 8.18398 56.7143 7.91579 55.8401 7.91579C55.0667 7.91579 54.2933 8.15046 53.6881 8.7539V8.41866C53.6881 8.25103 53.5536 8.11693 53.3855 8.11693H51.7715V16.0288H53.789V10.5307C54.1925 10.0614 54.8313 9.75964 55.4366 9.75964C56.5462 9.75964 56.9833 10.2625 56.9833 11.57V16.0288H59.0008ZM46.8617 7.91573C45.4831 7.91573 44.8106 8.75384 44.8106 8.75384V4.32858H42.7931V15.9952H44.508C44.6761 15.9952 44.8106 15.8611 44.8106 15.6935V15.3247C44.8106 15.3247 45.4495 16.1963 46.8617 16.1963C49.1482 16.1963 50.9303 14.4195 50.9303 12.0393C50.9639 9.65901 49.1818 7.91573 46.8617 7.91573ZM44.8106 13.4139C45.1468 13.8832 45.7521 14.2855 46.5254 14.2855C47.8704 14.2855 48.9128 13.4474 48.9128 12.0058C48.9128 10.5643 47.8704 9.72616 46.5254 9.72616C45.7857 9.72616 45.1132 10.162 44.8106 10.5978V13.4139ZM41.0781 7.91579C41.6833 7.91579 42.0196 8.01636 42.0196 8.01636V9.89374C42.0196 9.89374 40.3383 9.32382 39.296 10.5307V16.0288H37.2785V8.11693H38.9934C39.1615 8.11693 39.296 8.25103 39.296 8.41866V8.7539C39.6322 8.31808 40.4392 7.91579 41.0781 7.91579ZM10.6144 16.364C9.47118 14.9225 8.73143 13.5815 8.49606 12.4752C8.39518 12.0058 8.36156 11.57 8.42881 11.2012C8.46243 10.866 8.59693 10.5643 8.76506 10.3296C9.16855 9.75966 9.84105 9.39089 10.6144 9.39089C11.3878 9.39089 12.0939 9.72614 12.4638 10.3296C12.6319 10.5978 12.7664 10.866 12.8 11.2012C12.8673 11.57 12.8337 12.0058 12.7328 12.4752C12.4974 13.5815 11.7577 14.9225 10.6144 16.364ZM17.1039 19.817C18.1463 19.4147 18.886 18.476 19.0205 17.3697C19.0878 16.7998 19.0205 16.2969 18.9196 15.7605C18.8832 15.6516 18.837 15.5427 18.7862 15.4232C18.7432 15.3219 18.6969 15.213 18.6507 15.09C18.5666 14.9224 18.4909 14.7464 18.4153 14.5704C18.3396 14.3944 18.264 14.2184 18.1799 14.0508V14.0172C16.734 10.8994 15.1873 7.7146 13.5733 4.5968L13.5061 4.46271L13.5061 4.4627C13.3379 4.12745 13.1698 3.79221 13.0017 3.49049C12.8336 3.15524 12.6318 2.82 12.3964 2.5518C11.9593 2.04893 11.3541 1.78073 10.7152 1.78073C10.0763 1.78073 9.47109 2.04893 9.03397 2.5518C8.79859 2.85352 8.59684 3.15524 8.42872 3.49049L8.4287 3.49053C8.26058 3.82576 8.09247 4.16099 7.92435 4.46271L7.8571 4.5968C6.20949 7.7146 4.66275 10.8994 3.21688 14.0172L3.18326 14.0508C3.01513 14.386 2.84701 14.7548 2.71251 15.09C2.61164 15.3247 2.51076 15.5594 2.44351 15.7605C2.20814 16.364 2.17451 16.8668 2.24176 17.4032C2.37626 18.476 3.11601 19.4147 4.15838 19.8505C4.62912 20.0182 5.16712 20.1187 5.73874 20.0517C6.27674 19.9846 6.81473 19.817 7.35273 19.5153C8.09247 19.0795 8.86584 18.4425 9.74009 17.4703C8.36147 15.7605 7.48723 14.1849 7.1846 12.8104C7.01648 12.1734 6.98286 11.5699 7.08373 11.0335C7.1846 10.4972 7.35273 10.0278 7.65535 9.59198C8.29422 8.68682 9.40384 8.1169 10.6143 8.1169C11.8248 8.1169 12.9344 8.65329 13.5733 9.59198C13.8759 10.0278 14.0441 10.4972 14.1449 11.0335C14.2122 11.5699 14.1786 12.1734 14.0441 12.8104C13.7078 14.1849 12.8672 15.727 11.4886 17.4368C12.3628 18.409 13.1026 19.0459 13.8759 19.4818C14.4476 19.7835 14.9519 19.9511 15.4899 20.0182C16.0615 20.0852 16.5995 20.0182 17.1039 19.817Z" fill="#6D7A8D"/>
</svg>
