<svg width="227" height="41" viewBox="0 0 227 41" fill="none" xmlns="http://www.w3.org/2000/svg">
<path fill-rule="evenodd" clip-rule="evenodd" d="M71.4698 7.53927C71.4698 8.76262 70.4028 9.8112 69.1579 9.8112C67.913 9.8112 66.846 8.76262 66.846 7.53927C66.846 6.31592 67.913 5.26733 69.1579 5.26733C70.4028 5.26733 71.4698 6.31592 71.4698 7.53927ZM69.1579 11.6754C67.7944 11.6754 66.7274 12.7239 66.7274 14.0638C66.7274 15.4037 67.7944 16.4522 69.1579 16.4522C70.5213 16.4522 71.5884 15.4037 71.5884 14.0638C71.5884 12.6657 70.5213 11.6754 69.1579 11.6754ZM66.6681 20.4718C66.6681 19.132 67.7944 18.0251 69.1579 18.0251C70.5213 18.0251 71.7069 19.132 71.6476 20.4718C71.6476 21.8117 70.5213 22.9185 69.1579 22.9185C67.7944 22.9185 66.6681 21.8117 66.6681 20.4718ZM69.1579 24.4914C67.7944 24.4914 66.7274 25.54 66.7274 26.8798C66.7274 28.2197 67.7944 29.2683 69.1579 29.2683C70.5213 29.2683 71.5884 28.2197 71.5884 26.8798C71.5884 25.5982 70.5213 24.4914 69.1579 24.4914ZM66.846 33.3461C66.846 32.1228 67.913 31.0742 69.1579 31.0742C70.462 31.0742 71.4698 32.1228 71.4698 33.3461C71.4698 34.5695 70.4028 35.618 69.1579 35.618C67.913 35.618 66.846 34.5695 66.846 33.3461ZM75.5601 11.3841C74.0781 11.3841 72.8333 12.6074 72.8333 14.0638C72.8333 15.5202 74.0781 16.7435 75.5601 16.7435C77.0421 16.7435 78.287 15.5202 78.287 14.0638C78.287 12.6074 77.0421 11.3841 75.5601 11.3841ZM72.7147 20.5301C72.7147 18.9572 74.0188 17.7338 75.5601 17.7338C77.1014 17.7338 78.4056 18.9572 78.4056 20.5301C78.4056 22.1029 77.1014 23.3263 75.5601 23.3263C73.9596 23.3263 72.7147 22.0447 72.7147 20.5301ZM75.5601 24.2001C74.0781 24.2001 72.8333 25.4235 72.8333 26.8798C72.8333 28.3362 74.0781 29.5595 75.5601 29.5595C77.0421 29.5595 78.287 28.3362 78.287 26.8798C78.287 25.4235 77.0421 24.2001 75.5601 24.2001ZM78.9984 20.4718C78.9984 18.7242 80.4804 17.3843 82.1402 17.3843C83.8 17.3843 85.1635 18.7242 85.282 20.4718C85.282 22.2195 83.9186 23.5593 82.1402 23.5593C80.3618 23.5593 78.9984 22.1029 78.9984 20.4718ZM62.6964 11.9666C61.5701 11.9666 60.6216 12.8987 60.6216 14.0055C60.6216 15.1124 61.5701 16.0445 62.6964 16.0445C63.8227 16.0445 64.7712 15.1124 64.7712 14.0055C64.7712 12.8987 63.882 11.9666 62.6964 11.9666ZM60.503 20.4718C60.503 19.2485 61.4515 18.3164 62.6964 18.3164C63.9412 18.3164 64.8897 19.2485 64.8897 20.4718C64.8897 21.6952 63.9412 22.6272 62.6964 22.6272C61.4515 22.6272 60.503 21.6952 60.503 20.4718ZM62.6964 24.7827C61.5701 24.7827 60.6216 25.7147 60.6216 26.8216C60.6216 27.9284 61.5701 28.8605 62.6964 28.8605C63.8227 28.8605 64.7712 27.9284 64.7712 26.8216C64.7712 25.7147 63.882 24.7827 62.6964 24.7827ZM54.3379 20.5301C54.3379 19.4815 55.1678 18.6659 56.2349 18.6659C57.3019 18.6659 58.1318 19.4815 58.1318 20.5301C58.1318 21.5787 57.3019 22.3942 56.2349 22.3942C55.1678 22.3942 54.3379 21.5787 54.3379 20.5301Z" fill="#6D7A8D"/>
<path d="M108.875 16.5105C108.638 16.5105 108.46 16.7435 108.46 16.9183V33.0548C108.46 33.2879 108.697 33.4626 108.875 33.4626H110.831C111.068 33.4626 111.246 33.2296 111.246 33.0548V16.9183C111.246 16.6853 111.009 16.5105 110.831 16.5105H108.875Z" fill="#6D7A8D"/>
<path d="M109.942 9.69458C108.875 9.69458 108.045 10.5101 108.045 11.5587C108.045 12.6073 108.875 13.4229 109.942 13.4229C111.009 13.4229 111.839 12.6073 111.839 11.5587C111.839 10.5101 110.95 9.69458 109.942 9.69458Z" fill="#6D7A8D"/>
<path d="M150.964 16.5105C150.727 16.5105 150.549 16.7435 150.549 16.9183V33.0548C150.549 33.2879 150.786 33.4626 150.964 33.4626H152.92C153.157 33.4626 153.335 33.2296 153.335 33.0548V16.9183C153.335 16.6853 153.098 16.5105 152.92 16.5105H150.964Z" fill="#6D7A8D"/>
<path d="M151.913 9.69458C150.846 9.69458 150.016 10.5101 150.016 11.5587C150.016 12.6073 150.846 13.4229 151.913 13.4229C152.98 13.4229 153.81 12.6073 153.81 11.5587C153.81 10.5101 152.98 9.69458 151.913 9.69458Z" fill="#6D7A8D"/>
<path fill-rule="evenodd" clip-rule="evenodd" d="M171.928 31.6957C171.916 31.7524 171.886 31.821 171.813 31.8896C171.813 32.0061 171.69 32.1226 171.443 32.0643L171.537 32.1734C171.525 32.1781 171.514 32.1809 171.505 32.1809H171.319L171.752 32.7051H171.999L171.537 32.1734C171.558 32.1655 171.582 32.1521 171.609 32.1374C171.669 32.1043 171.741 32.0643 171.813 32.0643C171.937 32.0643 171.937 31.9478 171.937 31.8313C171.937 31.7834 171.937 31.7355 171.928 31.6957ZM171.072 32.1809V32.0061V31.4818H171.505C171.628 31.4818 171.752 31.4818 171.813 31.5983C171.886 31.5983 171.916 31.6387 171.928 31.6957C171.937 31.6561 171.937 31.6223 171.937 31.5983V31.4818C171.937 31.4818 171.937 31.3653 171.813 31.3653C171.813 31.3653 171.69 31.2488 171.566 31.2488H171.319H170.764V32.7051H171.011V32.1809H171.072Z" fill="#6D7A8D"/>
<path fill-rule="evenodd" clip-rule="evenodd" d="M169.993 32.0061C169.993 31.3071 170.645 30.6663 171.357 30.6663C172.127 30.6663 172.72 31.2488 172.72 32.0061C172.72 32.7052 172.068 33.346 171.357 33.346C170.645 33.346 169.993 32.7052 169.993 32.0061ZM170.112 32.0061C170.112 32.7052 170.645 33.2295 171.357 33.2295C172.009 33.2295 172.601 32.7052 172.601 32.0061C172.601 31.3071 172.068 30.7828 171.357 30.7828C170.645 30.7828 170.112 31.3071 170.112 32.0061Z" fill="#6D7A8D"/>
<path d="M125.177 19.1318C125.414 19.1318 125.592 18.8988 125.592 18.724V16.8016C125.592 16.5686 125.355 16.3938 125.177 16.3938H120.968V10.2188C120.968 9.9858 120.731 9.81104 120.553 9.81104H118.597C118.36 9.81104 118.182 10.0441 118.182 10.2188V16.3938H116.107C115.87 16.3938 115.692 16.6268 115.692 16.8016V18.724C115.692 18.957 115.93 19.1318 116.107 19.1318H118.182V28.4525C118.182 31.307 120.138 33.1712 122.984 33.1712H125.059C125.296 33.1712 125.474 32.9382 125.474 32.7634V30.841C125.474 30.608 125.236 30.4332 125.059 30.4332H123.28C121.917 30.4332 120.968 29.5011 120.968 28.0448V19.0735H125.177V19.1318Z" fill="#6D7A8D"/>
<path d="M166.791 19.1318C167.029 19.1318 167.206 18.8988 167.206 18.724V16.8016C167.206 16.5686 166.969 16.3938 166.791 16.3938H162.583V10.2188C162.583 9.9858 162.345 9.81104 162.168 9.81104H160.211C159.974 9.81104 159.796 10.0441 159.796 10.2188V16.3938H157.722C157.484 16.3938 157.307 16.6268 157.307 16.8016V18.724C157.307 18.957 157.544 19.1318 157.722 19.1318H159.796V28.4525C159.796 31.307 161.753 33.1712 164.598 33.1712H166.673C166.91 33.1712 167.088 32.9382 167.088 32.7634V30.841C167.088 30.608 166.851 30.4332 166.673 30.4332H164.776C163.412 30.4332 162.464 29.5011 162.464 28.0448V19.0735H166.732L166.791 19.1318Z" fill="#6D7A8D"/>
<path d="M96.4263 19.1318V32.88C96.4263 33.113 96.6634 33.2877 96.8412 33.2877H98.7975C99.0346 33.2877 99.2124 33.0547 99.2124 32.88V19.1318H103.836C104.073 19.1318 104.251 18.8988 104.251 18.7241V16.8017C104.251 16.5686 104.014 16.3939 103.836 16.3939H99.2124V12.7821C99.2124 11.3257 100.279 10.3354 101.524 10.3354H103.836C104.073 10.3354 104.251 10.1024 104.251 9.9276V8.0052C104.251 7.77218 104.014 7.59741 103.836 7.59741H101.643C98.7382 7.59741 96.4263 9.98586 96.4263 12.7238V16.3939H94.3515C94.1144 16.3939 93.9365 16.6269 93.9365 16.8017V18.7241C93.9365 18.9571 94.1736 19.1318 94.3515 19.1318H96.4263Z" fill="#6D7A8D"/>
<path fill-rule="evenodd" clip-rule="evenodd" d="M138.278 15.8696C140.589 15.8696 142.783 16.8017 144.324 18.4328C145.865 20.064 146.695 22.3359 146.695 24.8409C146.695 31.0741 142.368 33.8703 138.218 33.8703C134.009 33.8703 129.741 31.1324 129.741 24.8409V7.88874C129.741 7.71398 129.919 7.48096 130.156 7.48096H132.112C132.29 7.48096 132.527 7.65572 132.527 7.88874V18.1416C133.891 16.8017 136.084 15.8696 138.278 15.8696ZM132.468 24.8991C132.468 27.9866 134.009 31.2489 138.218 31.2489C142.427 31.2489 143.909 27.9866 143.968 24.8991C143.968 21.1708 141.656 18.6076 138.218 18.6076C134.78 18.6076 132.468 21.1126 132.468 24.8991Z" fill="#6D7A8D"/>
</svg>
