<svg width="64" height="64" viewBox="0 0 64 64" fill="none" xmlns="http://www.w3.org/2000/svg">
<rect width="64" height="64" rx="12" fill="#E9EEF6"/>
<path d="M44.5002 46.1665H19.5002C18.4112 46.1799 17.3613 45.7612 16.5803 45.0021C15.7994 44.2431 15.3511 43.2055 15.3335 42.1165V21.8832C15.3511 20.7943 15.7994 19.7567 16.5803 18.9976C17.3613 18.2385 18.4112 17.8198 19.5002 17.8332H27.1668C27.413 17.8348 27.6558 17.891 27.8777 17.9976C28.0996 18.1042 28.2951 18.2587 28.4502 18.4499L32.7835 23.7499H44.4502C44.9936 23.7366 45.5342 23.8311 46.0409 24.0278C46.5476 24.2246 47.0103 24.5198 47.4023 24.8963C47.7944 25.2728 48.1079 25.7233 48.325 26.2216C48.542 26.72 48.6582 27.2564 48.6668 27.7999V42.1165C48.6493 43.2055 48.2009 44.2431 47.42 45.0021C46.639 45.7612 45.5891 46.1799 44.5002 46.1665Z" fill="#1E55A8"/>
</svg>
