<svg width="319" height="44" viewBox="0 0 319 44" fill="none" xmlns="http://www.w3.org/2000/svg">
<rect x="0.535156" y="4.12195" width="29.145" height="29.145" rx="9.07187" fill="#DDE6F2"/>
<rect x="15.1074" y="10.4514" width="29.145" height="29.145" rx="9.07187" fill="#1E55A8"/>
<path d="M53.6094 34.3591L61.5275 11.4058H66.9501L74.8682 34.3591H70.3083L68.6754 29.4296H59.8022L58.1385 34.3591H53.6094ZM61.0038 25.7324H67.4738L63.6534 14.3019H64.8242L61.0038 25.7324ZM77.4228 34.3591V11.4058H81.6129V30.662H91.4412V34.3591H77.4228ZM94.1515 34.3591V11.4058H102.717C104.278 11.4058 105.654 11.6934 106.845 12.2685C108.057 12.8231 109.002 13.6447 109.68 14.7333C110.358 15.8013 110.696 17.1056 110.696 18.6461C110.696 20.1661 110.347 21.4704 109.649 22.559C108.971 23.627 108.036 24.4486 106.845 25.0238C105.654 25.5989 104.278 25.8864 102.717 25.8864H98.3417V34.3591H94.1515ZM98.3417 22.1892H102.778C103.538 22.1892 104.196 22.0455 104.75 21.7579C105.305 21.4498 105.736 21.0287 106.044 20.4947C106.352 19.9607 106.506 19.3445 106.506 18.6461C106.506 17.9272 106.352 17.311 106.044 16.7975C105.736 16.2635 105.305 15.8527 104.75 15.5651C104.196 15.257 103.538 15.103 102.778 15.103H98.3417V22.1892ZM110.415 34.3591L118.333 11.4058H123.756L131.674 34.3591H127.114L125.481 29.4296H116.608L114.944 34.3591H110.415ZM117.809 25.7324H124.279L120.459 14.3019H121.63L117.809 25.7324Z" fill="#2D3643"/>
</svg>
