<svg width="64" height="22" viewBox="0 0 64 22" fill="none" xmlns="http://www.w3.org/2000/svg">
<path d="M16.111 7.80429H8.70177V9.98899H13.9706C13.7071 13.0674 11.1386 14.4246 8.7347 14.4246C5.63929 14.4246 2.93904 11.9751 2.93904 8.56563C2.93904 5.22238 5.50757 2.64047 8.7347 2.64047C11.2374 2.64047 12.6863 4.22934 12.6863 4.22934L14.2011 2.64047C14.2011 2.64047 12.2253 0.455777 8.63591 0.455777C4.05866 0.422676 0.535156 4.29554 0.535156 8.49942C0.535156 12.604 3.86108 16.6093 8.76763 16.6093C13.0815 16.6093 16.2427 13.6632 16.2427 9.26076C16.2427 8.33392 16.111 7.80429 16.111 7.80429Z" fill="#6D7A8D"/>
<path fill-rule="evenodd" clip-rule="evenodd" d="M16.9326 11.3462C16.9326 8.56568 19.106 6.18237 22.1355 6.18237C24.6382 6.18237 27.3385 7.96985 27.3714 11.4124C27.3714 14.4577 25.0663 16.6093 22.2014 16.6093C19.0401 16.6093 16.9326 14.1929 16.9326 11.3462ZM25.0658 11.4122C25.0658 9.49236 23.6498 8.26761 22.1679 8.26761C20.4885 8.26761 19.2042 9.59167 19.2372 11.3791C19.2372 13.2328 20.5214 14.5569 22.1679 14.5569C23.6827 14.5569 25.0658 13.3321 25.0658 11.4122Z" fill="#6D7A8D"/>
<path fill-rule="evenodd" clip-rule="evenodd" d="M28.2637 11.3462C28.2637 8.56568 30.437 6.18237 33.4666 6.18237C35.9693 6.18237 38.6695 7.96985 38.7025 11.4124C38.7025 14.4577 36.3974 16.6093 33.5325 16.6093C30.3712 16.6093 28.2637 14.1929 28.2637 11.3462ZM36.3968 11.4122C36.3968 9.49236 34.9808 8.26761 33.499 8.26761C31.8196 8.26761 30.5353 9.59167 30.5682 11.3791C30.5682 13.2328 31.8525 14.5569 33.499 14.5569C35.0138 14.5569 36.3968 13.3321 36.3968 11.4122Z" fill="#6D7A8D"/>
<path fill-rule="evenodd" clip-rule="evenodd" d="M39.5898 11.4125C39.5898 8.66508 41.7632 6.21558 44.5623 6.21558C45.7807 6.21558 46.7027 6.679 47.2954 7.40723V6.51349H49.4688V15.8812C49.4688 19.5554 47.3613 21.3098 44.5952 21.3098C42.0596 21.3098 40.6436 19.7541 39.9521 18.2645L41.9608 17.437C42.2572 18.099 43.0475 19.2906 44.6281 19.2906C46.2746 19.2906 47.3613 18.1983 47.3613 16.4108V15.3847C46.7356 16.0798 45.9782 16.6425 44.4964 16.6425C42.1254 16.6425 39.5898 14.524 39.5898 11.4125ZM47.5253 11.4457C47.5253 9.45965 46.1093 8.268 44.7592 8.268C43.3103 8.268 41.8943 9.42655 41.8614 11.4788C41.8614 13.3656 43.2444 14.5904 44.7263 14.5904C46.1422 14.5904 47.5253 13.498 47.5253 11.4457Z" fill="#6D7A8D"/>
<path fill-rule="evenodd" clip-rule="evenodd" d="M54.375 11.3791C54.375 8.26752 56.5813 6.18213 59.2157 6.18213C61.2574 6.18213 62.8051 7.57239 63.4966 9.16126L63.8588 10.0219L56.9106 12.9348C57.3387 13.7293 57.9973 14.5237 59.4462 14.5237C60.7305 14.5237 61.5208 13.8286 61.9818 13.1003L63.793 14.3251C63.0026 15.3843 61.6196 16.6091 59.4462 16.6091C56.8447 16.6091 54.375 14.6561 54.375 11.3791ZM61.2245 9.32687C60.8952 8.69795 60.2366 8.20143 59.2817 8.20143C57.7998 8.20143 56.3509 9.75719 56.6144 11.2799L61.2245 9.32687Z" fill="#6D7A8D"/>
<path d="M51.083 16.3115H53.3552V0.952393H51.083V16.3115Z" fill="#6D7A8D"/>
</svg>
