<svg width="227" height="41" viewBox="0 0 227 41" fill="none" xmlns="http://www.w3.org/2000/svg">
<path d="M83.3396 14.3993H69.5179V18.4748H79.3467C78.8552 24.2176 74.0637 26.7493 69.5793 26.7493C63.8049 26.7493 58.7676 22.1798 58.7676 15.8196C58.7676 9.58282 63.5591 4.76632 69.5793 4.76632C74.248 4.76632 76.9509 7.73032 76.9509 7.73032L79.7767 4.76632C79.7767 4.76632 76.0909 0.690823 69.395 0.690823C60.8562 0.629073 54.2832 7.85382 54.2832 15.6961C54.2832 23.3531 60.4876 30.8248 69.6407 30.8248C77.6881 30.8248 83.5853 25.3291 83.5853 17.1163C83.5853 15.3873 83.3396 14.3993 83.3396 14.3993Z" fill="#6D7A8D"/>
<path fill-rule="evenodd" clip-rule="evenodd" d="M84.875 21.0065C84.875 15.8195 88.9294 11.3735 94.5809 11.3735C99.2496 11.3735 104.287 14.708 104.348 21.13C104.348 26.811 100.048 30.8248 94.7038 30.8248C88.8065 30.8248 84.875 26.317 84.875 21.0065ZM100.048 21.13C100.048 17.5485 97.4067 15.2638 94.6424 15.2638C91.5094 15.2638 89.1137 17.7338 89.1751 21.0683C89.1751 24.5263 91.5709 26.9963 94.6424 26.9963C97.4682 26.9963 100.048 24.7115 100.048 21.13Z" fill="#6D7A8D"/>
<path fill-rule="evenodd" clip-rule="evenodd" d="M106.007 21.0065C106.007 15.8195 110.061 11.3735 115.713 11.3735C120.381 11.3735 125.419 14.708 125.48 21.13C125.48 26.811 121.18 30.8248 115.836 30.8248C109.938 30.8248 106.007 26.317 106.007 21.0065ZM121.18 21.13C121.18 17.5485 118.539 15.2638 115.774 15.2638C112.641 15.2638 110.246 17.7338 110.307 21.0683C110.307 24.5263 112.703 26.9963 115.774 26.9963C118.6 26.9963 121.18 24.7115 121.18 21.13Z" fill="#6D7A8D"/>
<path fill-rule="evenodd" clip-rule="evenodd" d="M127.14 21.1301C127.14 16.0048 131.194 11.4353 136.416 11.4353C138.688 11.4353 140.409 12.2998 141.514 13.6583V11.9911H145.569V29.4663C145.569 36.3206 141.637 39.5933 136.477 39.5933C131.747 39.5933 129.105 36.6911 127.815 33.9123L131.563 32.3686C132.115 33.6036 133.59 35.8266 136.538 35.8266C139.61 35.8266 141.637 33.7888 141.637 30.4543V28.5401C140.47 29.8368 139.057 30.8866 136.293 30.8866C131.87 30.8866 127.14 26.9346 127.14 21.1301ZM141.944 21.1918C141.944 17.4868 139.303 15.2638 136.784 15.2638C134.081 15.2638 131.44 17.4251 131.378 21.2536C131.378 24.7733 133.958 27.0581 136.723 27.0581C139.364 27.0581 141.944 25.0203 141.944 21.1918Z" fill="#6D7A8D"/>
<path fill-rule="evenodd" clip-rule="evenodd" d="M154.722 21.0683C154.722 15.2638 158.837 11.3735 163.752 11.3735C167.561 11.3735 170.448 13.967 171.738 16.931L172.414 18.5365L159.452 23.9705C160.25 25.4525 161.479 26.9345 164.182 26.9345C166.578 26.9345 168.052 25.6378 168.912 24.2793L172.291 26.564C170.816 28.54 168.236 30.8248 164.182 30.8248C159.329 30.8248 154.722 27.1815 154.722 21.0683ZM167.499 17.2398C166.885 16.0665 165.656 15.1403 163.875 15.1403C161.11 15.1403 158.407 18.0425 158.899 20.883L167.499 17.2398Z" fill="#6D7A8D"/>
<path d="M148.578 30.2692H152.817V1.61719H148.578V30.2692Z" fill="#6D7A8D"/>
</svg>
