<svg width="132" height="44" viewBox="0 0 132 44" fill="none" xmlns="http://www.w3.org/2000/svg">
<rect y="4.26282" width="29.145" height="29.145" rx="9.07187" fill="#FFA51F"/>
<rect x="14.5723" y="10.5922" width="29.145" height="29.145" rx="9.07187" fill="#1E55A8"/>
<path d="M53.0738 34.5L60.9919 11.5467H66.4144L74.3326 34.5H69.7727L68.1398 29.5704H59.2665L57.6028 34.5H53.0738ZM60.4681 25.8732H66.9382L63.1178 14.4428H64.2885L60.4681 25.8732ZM76.8871 34.5V11.5467H81.0773V30.8028H90.9056V34.5H76.8871ZM93.6159 34.5V11.5467H102.181C103.742 11.5467 105.118 11.8342 106.31 12.4094C107.521 12.9639 108.466 13.7855 109.144 14.8741C109.822 15.9422 110.161 17.2465 110.161 18.787C110.161 20.3069 109.812 21.6112 109.113 22.6998C108.435 23.7679 107.501 24.5895 106.31 25.1646C105.118 25.7397 103.742 26.0273 102.181 26.0273H97.806V34.5H93.6159ZM97.806 22.3301H102.243C103.003 22.3301 103.66 22.1863 104.214 21.8988C104.769 21.5907 105.2 21.1696 105.508 20.6356C105.817 20.1015 105.971 19.4853 105.971 18.787C105.971 18.0681 105.817 17.4519 105.508 16.9384C105.2 16.4044 104.769 15.9936 104.214 15.706C103.66 15.3979 103.003 15.2439 102.243 15.2439H97.806V22.3301ZM109.879 34.5L117.798 11.5467H123.22L131.138 34.5H126.578L124.945 29.5704H116.072L114.408 34.5H109.879ZM117.274 25.8732H123.744L119.923 14.4428H121.094L117.274 25.8732Z" fill="#2D3643"/>
</svg>
