<svg width="117" height="48" viewBox="0 0 117 48" fill="none" xmlns="http://www.w3.org/2000/svg">
<path d="M15.0354 38.7644C12.9881 38.7644 11.0454 38.3759 9.25211 37.5839C7.47378 36.8068 5.90466 35.7458 4.5896 34.4307C3.25959 33.1007 2.19857 31.5316 1.43643 29.7682C0.659349 27.9749 0.255859 26.0472 0.255859 24.0447C0.255859 21.9974 0.644405 20.0547 1.43643 18.2614C2.21352 16.4831 3.27453 14.9139 4.5896 13.5989C5.90466 12.2838 7.48872 11.2078 9.25211 10.4457C11.0454 9.66862 12.9881 9.26514 15.0354 9.26514C16.9482 9.26514 18.7714 9.60885 20.475 10.3112C21.3567 10.6699 22.1935 11.1032 22.9856 11.6263V9.86289H30.3081V38.1069H22.9856V36.4033C22.1935 36.9114 21.3567 37.3597 20.475 37.7184C18.7714 38.4058 16.9333 38.7644 15.0354 38.7644ZM15.2745 15.7359C14.2434 15.7359 13.2571 15.96 12.3306 16.3784C11.3891 16.8118 10.5522 17.4096 9.8648 18.1418C9.17738 18.8741 8.60951 19.7707 8.19108 20.7869C7.77265 21.7881 7.57838 22.8791 7.57838 24.0297C7.57838 25.1655 7.7876 26.2564 8.19108 27.2427C8.60951 28.2439 9.16244 29.1256 9.8648 29.8579C10.5522 30.5901 11.3891 31.1879 12.3306 31.6213C13.2571 32.0546 14.2434 32.2638 15.2745 32.2638C16.3355 32.2638 17.3218 32.0546 18.2334 31.6213C19.1749 31.1729 20.0117 30.5901 20.7141 29.8429C21.4165 29.1107 21.9694 28.2439 22.3729 27.2427C22.7764 26.2564 22.9706 25.1655 22.9706 24.0148C22.9706 22.8641 22.7614 21.7732 22.3729 20.757C21.9694 19.7558 21.4165 18.8741 20.7141 18.1418C20.0117 17.4096 19.1749 16.8118 18.2334 16.3635C17.3368 15.96 16.3355 15.7359 15.2745 15.7359Z" fill="#1C2749"/>
<path d="M40.6194 0H33.2969V38.1668H40.6194V0Z" fill="#1C2749"/>
<path d="M43.6074 47.9999V9.83311H50.9299V11.6114C51.722 11.0884 52.5738 10.6401 53.4555 10.2814C55.1441 9.59401 56.9822 9.23535 58.9249 9.23535C60.9424 9.23535 62.8702 9.62389 64.6485 10.4159C66.4268 11.193 67.9959 12.254 69.311 13.5691C70.626 14.8842 71.702 16.4682 72.4641 18.2316C73.2412 20.0249 73.6447 21.9676 73.6447 24.0149C73.6447 26.0323 73.2562 27.9601 72.4641 29.7534C71.6871 31.5317 70.626 33.1008 69.311 34.4159C67.981 35.7459 66.4119 36.8069 64.6485 37.569C62.8552 38.3461 60.9274 38.7496 58.91 38.7496C56.9673 38.7496 55.1292 38.4059 53.4405 37.7035C52.5588 37.3449 51.707 36.8966 50.915 36.3735V47.985H43.6074V47.9999ZM58.6261 15.736C57.5949 15.736 56.6086 15.9601 55.6821 16.3785C54.7407 16.8119 53.9038 17.4097 53.2164 18.1419C52.529 18.8742 51.9611 19.7708 51.5427 20.787C51.1242 21.7882 50.9299 22.8792 50.9299 24.0298C50.9299 25.1656 51.1392 26.2565 51.5427 27.2428C51.9611 28.244 52.514 29.1257 53.2164 29.858C53.9038 30.5902 54.7407 31.188 55.6821 31.6214C56.6086 32.0547 57.5949 32.2639 58.6261 32.2639C59.6871 32.2639 60.6734 32.0547 61.585 31.6214C62.5264 31.173 63.3633 30.5902 64.0657 29.843C64.768 29.1108 65.3209 28.244 65.7244 27.2428C66.1279 26.2565 66.3222 25.1656 66.3222 24.0149C66.3222 22.8642 66.113 21.7733 65.7244 20.7571C65.3209 19.7559 64.768 18.8742 64.0657 18.1419C63.3633 17.4097 62.5264 16.8119 61.585 16.3636C60.6883 15.9601 59.6871 15.736 58.6261 15.736Z" fill="#1C2749"/>
<path d="M91.2639 38.7644C89.2166 38.7644 87.2739 38.3759 85.4806 37.5839C83.7023 36.8068 82.1332 35.7458 80.8181 34.4307C79.4881 33.1007 78.4271 31.5316 77.6649 29.7682C76.8879 27.9749 76.4844 26.0472 76.4844 24.0447C76.4844 21.9974 76.8729 20.0547 77.6649 18.2614C78.442 16.4831 79.503 14.9139 80.8181 13.5989C82.1332 12.2838 83.7172 11.2078 85.4806 10.4457C87.2739 9.66862 89.2166 9.26514 91.2639 9.26514C93.1767 9.26514 94.9999 9.60885 96.7035 10.3112C97.5852 10.6699 98.4221 11.1032 99.2141 11.6263V9.86289H106.537V38.1069H99.2141V36.4033C98.4221 36.9114 97.5852 37.3597 96.7035 37.7184C94.9999 38.4058 93.1767 38.7644 91.2639 38.7644ZM91.518 15.7359C90.4868 15.7359 89.5005 15.96 88.574 16.3784C87.6325 16.8118 86.7957 17.4096 86.1083 18.1418C85.4208 18.8741 84.853 19.7707 84.4346 20.7869C84.0161 21.7881 83.8218 22.8791 83.8218 24.0297C83.8218 25.1655 84.0311 26.2564 84.4346 27.2427C84.853 28.2439 85.4059 29.1256 86.1083 29.8579C86.7957 30.5901 87.6325 31.1879 88.574 31.6213C89.5005 32.0546 90.4868 32.2638 91.518 32.2638C92.579 32.2638 93.5653 32.0546 94.4769 31.6213C95.4183 31.1729 96.2552 30.5901 96.9576 29.8429C97.6599 29.1107 98.2128 28.2439 98.6163 27.2427C99.0198 26.2564 99.2141 25.1655 99.2141 24.0148C99.2141 22.8641 99.0049 21.7732 98.6163 20.757C98.2128 19.7558 97.6599 18.8741 96.9576 18.1418C96.2552 17.4096 95.4183 16.8118 94.4769 16.3635C93.5653 15.96 92.564 15.7359 91.518 15.7359Z" fill="#1C2749"/>
<path d="M116.669 30.7695H109.361V38.0771H116.669V30.7695Z" fill="#169CFF"/>
<path d="M116.669 20.2944H109.361V27.602H116.669V20.2944Z" fill="#169CFF"/>
<path d="M116.669 9.81787H109.361V17.1255H116.669V9.81787Z" fill="#169CFF"/>
</svg>
