<svg width="227" height="41" viewBox="0 0 227 41" fill="none" xmlns="http://www.w3.org/2000/svg">
<path fill-rule="evenodd" clip-rule="evenodd" d="M67.4488 34.3892L67.4487 34.3892C66.7663 34.4591 66.0735 34.5301 65.3642 34.6174L59.6733 18.1537V35.318C57.8949 35.4931 56.2943 35.7267 54.5752 36.0186V4.55078H59.3176L65.7791 22.4156V4.55078H70.8179V33.9752C69.7046 34.158 68.5912 34.2721 67.4488 34.3892ZM84.1606 16.0499L84.1607 16.0499C85.3386 16.0214 86.489 15.9936 87.357 15.9936V20.8977C85.1637 20.8977 82.5554 20.8977 80.6584 21.0145V28.3122C81.5821 28.2565 82.5118 28.1949 83.4456 28.133L83.4457 28.133L83.4457 28.133L83.4458 28.133L83.4458 28.133L83.4459 28.133C85.4484 28.0003 87.4698 27.8664 89.4911 27.7867V32.5157L75.6789 33.5665V4.55078H89.4911V9.45485H80.6584V16.1104C81.6598 16.1104 82.9253 16.0798 84.1606 16.0499ZM102.829 9.51324H107.986C107.986 9.51324 107.986 4.55078 108.046 4.55078H92.6922V9.51324H97.8496V32.1654C99.4502 32.107 101.169 32.107 102.829 32.107V9.51324ZM116.108 15.7601H122.925V20.6642H116.108V31.8151H111.188V4.55078H125.118V9.45485H116.108V15.7601ZM138.409 27.7295C136.695 27.6303 134.967 27.5303 133.24 27.4948V4.55078H128.26V32.107C132.825 32.2238 137.271 32.4573 141.717 32.7492V27.9035C140.622 27.8576 139.518 27.7937 138.409 27.7295ZM147.608 33.2071L147.608 33.2071C148.677 33.2707 149.761 33.3353 150.846 33.4498V4.55078H145.926V33.0995C146.48 33.1399 147.042 33.1734 147.608 33.2071ZM166.318 19.4965L172.661 4.55078H167.148L163.65 12.7826L160.39 4.55078H155.055L160.864 19.3214L154.462 33.6833C155.173 33.7767 155.885 33.8514 156.596 33.9262C157.663 34.0383 158.73 34.1504 159.797 34.3255L163.473 25.9769L167.029 35.0845C167.694 35.1867 168.351 35.2961 169.006 35.4051C170.221 35.6074 171.428 35.8085 172.661 35.9602L166.318 19.4965Z" fill="#6D7A8D"/>
</svg>
