<svg width="227" height="41" viewBox="0 0 227 41" fill="none" xmlns="http://www.w3.org/2000/svg">
<path d="M69.9405 4.46944C69.3998 2.69785 67.5074 1.74392 65.7501 2.28902C63.9929 2.83413 63.0467 4.74199 63.5873 6.51358L72.2385 33.3599C72.8468 34.9952 74.604 35.9492 76.2937 35.4722C78.051 34.9271 79.1324 33.0874 78.5917 31.3158C78.5917 31.2476 69.9405 4.46944 69.9405 4.46944Z" fill="#6D7A8D"/>
<path d="M56.5587 8.89839C56.018 7.12681 54.1256 6.17288 52.3683 6.71798C50.611 7.26308 49.6648 9.17094 50.2055 10.9425L58.8567 37.7889C59.4649 39.4242 61.2222 40.3781 62.9119 39.9011C64.6691 39.356 65.7505 37.5163 65.2098 35.7447C65.2098 35.6766 56.5587 8.89839 56.5587 8.89839Z" fill="#6D7A8D"/>
<path d="M80.8899 26.7504C82.6472 26.2053 83.5934 24.2974 83.0527 22.5258C82.512 20.7542 80.6196 19.8003 78.8623 20.3454L52.1654 28.9989C50.5433 29.6122 49.5971 31.3838 50.0702 33.0872C50.6109 34.8588 52.4358 35.949 54.193 35.4039C54.3282 35.4039 80.8899 26.7504 80.8899 26.7504Z" fill="#6D7A8D"/>
<path d="M57.7075 34.3139C59.4648 33.7688 61.6951 33.0193 64.0607 32.2016C63.52 30.43 62.7765 28.1815 61.9655 25.7966L55.6123 27.9089L57.7075 34.3139Z" fill="#6D7A8D"/>
<path d="M71.1577 29.8849C73.5908 29.0673 75.8212 28.3859 77.5109 27.7726C76.9702 26.0011 76.2267 23.7525 75.4157 21.3677L69.0625 23.48L71.1577 29.8849Z" fill="#6D7A8D"/>
<path d="M76.4971 13.1911C78.2544 12.646 79.2006 10.7381 78.6599 8.96651C78.1192 7.19492 76.2268 6.24099 74.4695 6.78609L47.8402 15.5077C46.2181 16.121 45.2719 17.8926 45.745 19.596C46.2857 21.4357 48.1106 22.526 49.8678 21.9127C49.9354 21.9127 76.4971 13.1911 76.4971 13.1911Z" fill="#6D7A8D"/>
<path d="M53.3823 20.7543C55.1396 20.2092 57.3699 19.4597 59.7355 18.642C58.9244 16.1891 58.2486 13.9405 57.6403 12.2371L51.2871 14.3493L53.3823 20.7543Z" fill="#6D7A8D"/>
<path d="M66.7641 16.3935C69.1973 15.5758 71.4277 14.8944 73.1173 14.2812C72.3063 11.8282 71.6304 9.57967 71.0221 7.87622L64.6689 9.9885L66.7641 16.3935Z" fill="#6D7A8D"/>
<path d="M107.857 11.5558C109.006 12.1009 109.141 12.4416 108.195 14.2131C107.249 16.0529 107.046 16.121 105.83 15.644C104.343 15.0308 102.518 14.5538 101.301 14.5538C99.3413 14.5538 98.0571 15.2352 98.0571 16.3254C98.0571 19.8686 109.344 17.9607 109.344 25.5922C109.344 29.4079 106.1 31.929 101.234 31.929C98.6654 31.929 95.4888 31.0432 93.3261 29.953C92.2447 29.4079 92.1771 29.0672 93.1233 27.2275C93.9343 25.6603 94.2047 25.4559 95.3537 25.9329C97.2461 26.7505 99.5441 27.3638 101.166 27.3638C102.991 27.3638 104.14 26.6142 104.14 25.524C104.14 22.049 92.6502 23.6843 92.6502 16.3254C92.6502 12.4416 95.8944 9.78418 100.693 9.78418C102.991 9.98859 105.897 10.67 107.857 11.5558Z" fill="#6D7A8D"/>
<path d="M116.981 2.56149V30.9069C116.981 31.3157 116.508 31.7927 115.9 31.7927H112.926C112.25 31.7927 111.845 31.3157 111.845 30.9069V2.56149C111.845 1.13059 112.25 1.06245 114.413 1.06245C116.846 0.994313 116.981 1.19873 116.981 2.56149Z" fill="#6D7A8D"/>
<path fill-rule="evenodd" clip-rule="evenodd" d="M137.934 30.6343V18.4376C137.934 13.1229 134.352 9.98853 128.674 9.98853C126.106 9.98853 123.268 10.8062 121.24 12.1689C120.158 12.8503 120.158 13.191 121.24 14.8945C122.389 16.5979 122.592 16.666 123.673 16.0528C125.025 15.2351 126.714 14.69 128.134 14.69C131.108 14.69 132.865 16.0528 132.865 18.3014V19.7322C131.446 19.119 129.688 18.7783 127.796 18.7783C122.727 18.7783 119.415 21.5038 119.415 25.5921C119.415 29.4078 122.389 31.9971 126.782 31.9971C129.08 31.9971 131.378 31.0431 132.932 29.2716L132.865 30.5662C132.797 31.2476 133.27 31.7245 133.946 31.7245H136.853C137.461 31.7245 137.934 31.3157 137.934 30.6343ZM127.39 27.9088C125.565 27.9088 124.349 26.9549 124.349 25.524C124.349 23.7524 126.174 22.3896 128.877 22.3896C130.161 22.3896 131.648 22.594 132.797 23.071V24.9789C131.648 26.8186 129.621 27.9088 127.39 27.9088Z" fill="#6D7A8D"/>
<path d="M158.007 11.6239C159.089 12.2371 159.089 12.5778 157.94 14.4175C156.858 16.121 156.656 16.2572 155.439 15.644C154.56 15.167 153.074 14.7582 151.925 14.7582C148.207 14.7582 145.774 17.2112 145.774 20.9588C145.774 24.8426 148.207 27.4319 151.925 27.4319C153.209 27.4319 154.831 26.9549 155.845 26.3417C156.926 25.7284 157.129 25.7284 158.278 27.4319C159.292 28.999 159.292 29.3397 158.345 30.0211C156.723 31.1795 154.087 32.0652 151.789 32.0652C144.963 32.0652 140.367 27.6363 140.367 21.0269C140.367 14.4175 144.963 10.0567 151.857 10.0567C154.02 9.98856 156.453 10.6699 158.007 11.6239Z" fill="#6D7A8D"/>
<path d="M180.378 29.0672C181.257 30.1574 180.919 30.5662 178.756 31.3157C176.594 32.1334 176.256 32.0653 175.512 31.0432L169.362 22.7985L166.591 25.4559V30.8388C166.591 31.2476 166.118 31.7246 165.509 31.7246H162.535C161.86 31.7246 161.454 31.2476 161.454 30.8388V2.56153C161.454 1.13064 161.86 1.0625 164.022 1.0625C166.523 1.0625 166.591 1.26691 166.591 2.56153V18.6421L174.972 10.5337C175.918 9.64788 176.391 9.71602 178.081 10.8062C179.905 11.9646 180.041 12.3053 179.162 13.1911L172.944 19.3235L180.378 29.0672Z" fill="#6D7A8D"/>
</svg>
